<?xml version="1.0" encoding="utf-8"?>
<!DOCTYPE svg PUBLIC "-//W3C//DTD SVG 1.1//EN" "http://www.w3.org/Graphics/SVG/1.1/DTD/svg11.dtd">
<svg version="1.1" id="Layer_1" xmlns="http://www.w3.org/2000/svg" xmlns:xlink="http://www.w3.org/1999/xlink" x="0px" y="0px"
	 width="792px" height="612px" viewBox="0 0 792 612" enable-background="new 0 0 792 612" xml:space="preserve">
<path fill="#FFFFFF" class="fm_fill" d="M692.438,306c0,163.719-132.719,296.438-296.438,296.438C232.282,602.438,99.562,469.719,99.562,306
	C99.562,142.282,232.282,9.562,396,9.562C559.719,9.562,692.438,142.282,692.438,306z M361.711,462.961l219.937-219.937
	c7.469-7.468,7.469-19.578,0-27.046l-27.046-27.046c-7.469-7.47-19.578-7.47-27.048,0L348.188,368.297l-83.742-83.742
	c-7.469-7.468-19.578-7.468-27.048,0l-27.046,27.047c-7.468,7.468-7.468,19.578,0,27.046L334.664,462.96
	C342.133,470.43,354.242,470.43,361.711,462.961L361.711,462.961z"/>
</svg>
