<?xml version="1.0" encoding="utf-8"?>
<!-- Generator: Adobe Illustrator 15.1.0, SVG Export Plug-In  -->
<!DOCTYPE svg [
	<!ENTITY ns_flows "http://ns.adobe.com/Flows/1.0/">
]>
<svg version="1.2" baseProfile="tiny"
	 xmlns="http://www.w3.org/2000/svg" xmlns:xlink="http://www.w3.org/1999/xlink" xmlns:a="http://ns.adobe.com/AdobeSVGViewerExtensions/3.0/"
	 x="0px" y="0px" width="188px" height="48px" viewBox="0 0 188 48" overflow="visible" xml:space="preserve">
<defs>
</defs>
<path d="M164,0c-13.255,0-24,10.745-24,24c0,13.254,10.745,24,24,24c13.256,0,24-10.746,24-24C188,10.745,177.256,0,164,0z
	 M178.991,31.602c-0.36,1.357-1.42,2.379-2.767,2.742C173.785,35,164,35,164,35s-9.783,0-12.224-0.656
	c-1.347-0.363-2.407-1.385-2.767-2.742c-0.654-2.455-0.654-7.579-0.654-7.579s0-5.124,0.654-7.579
	c0.359-1.355,1.42-2.423,2.767-2.785C154.217,13,164,13,164,13s9.785,0,12.225,0.658c1.347,0.362,2.406,1.429,2.767,2.785
	c0.653,2.455,0.653,7.579,0.653,7.579S179.645,29.146,178.991,31.602z"/>
<polygon points="158.163,31.676 158.163,16.371 171.615,24.023 "/>
<path d="M60.967,15v7.14H68v3.653h-7.033V33h-3.934v-7.207H50V22.14h7.033V15H60.967z"/>
<path d="M94,0C80.749,0,70,10.749,70,24c0,13.251,10.749,24,24,24c13.252,0,24-10.748,24-24C118,10.749,107.252,0,94,0z
	 M89.762,33.439c-2.542,0-5.123-0.848-7.088-2.543c-2.388-2.119-3.813-4.931-4.006-8.013c-0.193-2.966,0.848-5.855,2.852-8.09
	c2.272-2.504,6.356-6.395,6.51-6.588c1.118-1.04,2.851-1.001,3.891,0.077c1.039,1.117,1.002,2.851-0.078,3.93
	c-0.037,0.039-4.083,3.929-6.239,6.279c-1.003,1.117-1.503,2.543-1.426,4.045c0.116,1.58,0.849,3.044,2.12,4.161
	c1.695,1.464,5.007,1.772,7.048-0.076c1.234-1.118,2.736-2.736,2.736-2.736c1.041-1.117,2.773-1.194,3.892-0.154
	c1.117,1.04,1.194,2.773,0.153,3.929c-0.077,0.077-1.695,1.851-3.119,3.12C95.08,32.514,92.421,33.439,89.762,33.439L89.762,33.439z
	 M106.482,33.207c-2.273,2.504-6.357,6.396-6.511,6.59c-0.54,0.5-1.233,0.769-1.927,0.769c-0.732,0-1.463-0.269-2.004-0.847
	c-1.039-1.116-1-2.851,0.078-3.93c0.037-0.039,4.083-3.93,6.24-6.278c1.002-1.119,1.502-2.544,1.426-4.046
	c-0.077-1.58-0.848-3.044-2.119-4.161c-1.694-1.463-5.008-1.772-7.049,0.077c-1.234,1.117-2.736,2.735-2.736,2.735
	c-1.04,1.118-2.772,1.193-3.89,0.154c-1.117-1.041-1.194-2.774-0.154-3.93c0.077-0.077,1.694-1.849,3.118-3.121
	c3.932-3.544,10.364-3.621,14.371-0.154c2.426,2.08,3.853,4.931,4.045,8.014C109.525,28.123,108.524,30.974,106.482,33.207z"/>
<path d="M130.968,15v7.14H138v3.653h-7.032V33h-3.935v-7.207H120V22.14h7.033V15H130.968z"/>
<path d="M24,0C10.751,0,0,10.751,0,24c0,13.248,10.751,24,24,24c13.248,0,24-10.752,24-24C48,10.751,37.248,0,24,0z M33.745,37.312
	c-0.665,0-1.093-0.221-1.544-0.486c-3.379-2.037-7.359-3.067-11.836-3.067c-2.313,0-4.822,0.274-7.458,0.814l-0.193,0.054
	c-0.396,0.106-0.805,0.218-1.159,0.218c-1.418,0-2.529-1.11-2.529-2.528c0-1.351,0.788-2.323,2.108-2.604
	c3.237-0.715,6.355-1.079,9.26-1.079c5.409,0,10.253,1.257,14.396,3.734c0.752,0.479,1.425,1.097,1.425,2.455
	C36.216,36.219,35.13,37.312,33.745,37.312z M36.349,29.965c-0.696,0-1.184-0.265-1.54-0.459l-0.117-0.063
	c-4.05-2.396-9.392-3.757-14.697-3.757c-2.661,0-5.24,0.334-7.665,0.992c-0.11,0.03-0.207,0.061-0.297,0.088
	c-0.317,0.098-0.644,0.199-1.116,0.199c-1.587,0-2.878-1.291-2.878-2.877c0-1.486,0.812-2.567,2.229-2.966
	c2.507-0.703,5.421-1.354,9.735-1.354c6.453,0,12.718,1.614,17.641,4.544c1.063,0.629,1.582,1.534,1.582,2.766
	C39.21,28.7,37.947,29.965,36.349,29.965z M39.349,21.59c-0.72,0-1.204-0.196-1.75-0.512c-4.096-2.445-10.517-3.9-17.189-3.9
	c-3.402,0-6.591,0.388-9.224,1.124l-0.17,0.049c-0.345,0.101-0.818,0.239-1.347,0.239c-1.825,0-3.255-1.442-3.255-3.284
	c0-1.901,1.243-2.938,2.407-3.274c3.424-1.002,7.345-1.51,11.648-1.51c7.763,0,15.191,1.735,20.381,4.762
	c1.173,0.677,1.745,1.676,1.745,3.051C42.594,20.13,41.138,21.59,39.349,21.59z"/>
</svg>
