<?xml version="1.0" encoding="utf-8"?>
<!-- Generator: Adobe Illustrator 15.1.0, SVG Export Plug-In  -->
<!DOCTYPE svg [
	<!ENTITY ns_flows "http://ns.adobe.com/Flows/1.0/">
]>
<svg version="1.2" baseProfile="tiny"
	 xmlns="http://www.w3.org/2000/svg" xmlns:xlink="http://www.w3.org/1999/xlink" xmlns:a="http://ns.adobe.com/AdobeSVGViewerExtensions/3.0/"
	 x="0px" y="0px" width="118px" height="48px" viewBox="0 0 118 48" overflow="visible" xml:space="preserve">
<defs>
</defs>
<path fill="#FFFFFF" d="M94,0C80.745,0,70,10.745,70,24c0,13.254,10.745,24,24,24c13.256,0,24-10.746,24-24
	C118,10.745,107.256,0,94,0z M108.991,31.602c-0.36,1.357-1.42,2.379-2.767,2.742C103.785,35,94,35,94,35s-9.783,0-12.224-0.656
	c-1.347-0.363-2.407-1.385-2.767-2.742c-0.654-2.455-0.654-7.579-0.654-7.579s0-5.124,0.654-7.579
	c0.359-1.355,1.42-2.423,2.767-2.785C84.217,13,94,13,94,13s9.785,0,12.225,0.658c1.347,0.362,2.406,1.429,2.767,2.785
	c0.653,2.455,0.653,7.579,0.653,7.579S109.645,29.146,108.991,31.602z"/>
<polygon fill="#FFFFFF" points="88.163,31.676 101.615,24.023 88.163,16.371 "/>
<path fill="#FFFFFF" d="M24,0C10.749,0,0,10.749,0,24c0,13.251,10.749,24,24,24c13.252,0,24-10.748,24-24C48,10.749,37.252,0,24,0z
	 M19.762,33.439c-2.542,0-5.123-0.848-7.088-2.543c-2.388-2.119-3.813-4.931-4.006-8.013c-0.193-2.966,0.848-5.855,2.852-8.09
	c2.272-2.504,6.356-6.395,6.51-6.588c1.118-1.04,2.851-1.001,3.891,0.077c1.039,1.117,1.002,2.851-0.078,3.93
	c-0.037,0.039-4.083,3.929-6.239,6.279c-1.003,1.117-1.503,2.543-1.426,4.045c0.116,1.58,0.849,3.044,2.12,4.161
	c1.695,1.464,5.007,1.772,7.048-0.076c1.234-1.118,2.736-2.736,2.736-2.736c1.041-1.117,2.773-1.194,3.892-0.154
	c1.117,1.04,1.194,2.773,0.153,3.929c-0.077,0.077-1.695,1.851-3.119,3.12C25.08,32.514,22.421,33.439,19.762,33.439z
	 M36.482,33.207c-2.273,2.504-6.357,6.396-6.511,6.59c-0.54,0.5-1.233,0.769-1.927,0.769c-0.732,0-1.463-0.269-2.004-0.847
	c-1.039-1.116-1-2.851,0.078-3.93c0.037-0.039,4.083-3.93,6.24-6.278c1.002-1.119,1.502-2.544,1.426-4.046
	c-0.077-1.58-0.848-3.044-2.119-4.161c-1.694-1.463-5.008-1.772-7.049,0.077c-1.234,1.117-2.736,2.735-2.736,2.735
	c-1.04,1.118-2.772,1.193-3.89,0.154c-1.117-1.041-1.194-2.774-0.154-3.93c0.077-0.077,1.694-1.849,3.118-3.121
	c3.932-3.544,10.364-3.621,14.371-0.154c2.426,2.08,3.853,4.931,4.045,8.014C39.525,28.123,38.524,30.974,36.482,33.207z"/>
<polygon fill="#FFFFFF" points="60.968,15 57.033,15 57.033,22.14 50,22.14 50,25.793 57.033,25.793 57.033,33 60.968,33 
	60.968,25.793 68,25.793 68,22.14 60.968,22.14 "/>
</svg>
